<?xml version="1.0" encoding="UTF-8"?>
<svg id="Layer_1" xmlns="http://www.w3.org/2000/svg" version="1.1" viewBox="0 0 152.29 182.85">
  <!-- Generator: Adobe Illustrator 30.4.0, SVG Export Plug-In . SVG Version: 2.1.4 Build 226)  -->
  <defs>
    <style>
      .st0 {
        fill: #bba9ff;
      }

      .st1 {
        fill: #fbfbfe;
      }
    </style>
  </defs>
  <path class="st1" d="M68.34,98.51h14.93c16.86,0,30.53-13.67,30.53-30.53h0c0-16.86-13.67-30.53-30.53-30.53h-46.63v18.49c0,.81-.65,1.46-1.46,1.46H1.46c-.81,0-1.46-.65-1.46-1.46v-17.62C0,17.15,17.16,0,38.32,0h45.98c37.55,0,67.99,30.44,67.99,67.99h0c0,37.55-30.44,67.99-67.99,67.99h-26.74c-.69,0-1.18-.67-.98-1.32l10.77-35.4c.13-.43.53-.73.98-.73v-.02Z"/>
  <path class="st0" d="M37.46,81.04v100.35c0,.81-.65,1.46-1.46,1.46H1.46C.65,182.85,0,182.2,0,181.39v-73.42c0-.32.15-.62.4-.82l35.4-26.94c.68-.51,1.65-.03,1.65.82h0Z"/>
</svg>