<?xml version="1.0" encoding="UTF-8"?>
<svg id="Layer_1" xmlns="http://www.w3.org/2000/svg" xmlns:xlink="http://www.w3.org/1999/xlink" version="1.1" viewBox="0 0 152.29 182.86">
  <!-- Generator: Adobe Illustrator 30.4.0, SVG Export Plug-In . SVG Version: 2.1.4 Build 226)  -->
  <defs>
    <style>
      .st0 {
        fill: url(#linear-gradient);
      }
    </style>
    <linearGradient id="linear-gradient" x1="-35.2" y1="160.23" x2="147.77" y2="21.32" gradientTransform="translate(0 183.88) scale(1 -1)" gradientUnits="userSpaceOnUse">
      <stop offset="0" stop-color="#8c7ff8"/>
      <stop offset=".19" stop-color="#8c7ff8"/>
      <stop offset="1" stop-color="#1438ba"/>
    </linearGradient>
  </defs>
  <path class="st0" d="M68.34,98.51h14.93c16.86,0,30.53-13.67,30.53-30.53h0c0-16.86-13.67-30.53-30.53-30.53h-46.63v18.49c0,.81-.65,1.46-1.46,1.46H1.46c-.81,0-1.46-.65-1.46-1.46v-17.62C0,17.15,17.16,0,38.32,0h45.98c37.55,0,67.99,30.44,67.99,67.99h0c0,37.55-30.44,67.99-67.99,67.99h-26.74c-.69,0-1.18-.67-.98-1.32l10.77-35.4c.13-.43.53-.73.98-.73v-.02ZM35.81,80.22L.41,107.16c-.25.19-.4.5-.4.82v73.42c0,.81.65,1.46,1.46,1.46h34.54c.81,0,1.46-.65,1.46-1.46v-100.35c0-.85-.97-1.33-1.65-.82h0Z"/>
</svg>